<?xml version="1.0" standalone="no"?>
<!DOCTYPE svg PUBLIC "-//W3C//DTD SVG 20010904//EN"
 "http://www.w3.org/TR/2001/REC-SVG-20010904/DTD/svg10.dtd">
<svg version="1.0" xmlns="http://www.w3.org/2000/svg"
 width="512.000000pt" height="512.000000pt" viewBox="0 0 512.000000 512.000000"
 preserveAspectRatio="xMidYMid meet">

<g transform="translate(0.000000,512.000000) scale(0.100000,-0.100000)"
fill="#000000" stroke="none">
<path d="M2783 4601 c-65 -30 -104 -109 -88 -180 3 -17 40 -70 82 -118 175
-205 276 -405 330 -656 14 -63 18 -128 18 -282 -1 -182 -3 -209 -27 -305 -51
-202 -127 -365 -245 -521 -211 -281 -513 -468 -863 -535 -126 -24 -359 -24
-488 0 -254 46 -489 161 -686 335 -86 76 -131 95 -193 81 -70 -16 -123 -80
-123 -148 0 -103 84 -398 163 -572 361 -798 1215 -1294 2083 -1209 421 41 791
192 1124 460 175 141 212 195 195 286 -9 49 -69 109 -118 118 -71 14 -100 0
-209 -96 -255 -225 -553 -372 -874 -430 -171 -32 -451 -32 -617 -1 -557 105
-1017 452 -1272 961 -20 40 -33 71 -28 69 4 -2 40 -18 78 -37 253 -120 592
-179 865 -152 431 44 789 215 1080 518 233 242 379 517 452 853 20 92 22 133
22 335 0 202 -2 243 -22 335 -28 126 -81 287 -128 383 -19 39 -32 72 -30 74 8
8 184 -86 271 -145 701 -472 967 -1367 639 -2151 -51 -121 -56 -171 -21 -221
52 -77 129 -98 207 -58 38 20 50 34 82 98 196 392 245 931 128 1386 -190 737
-770 1315 -1503 1499 -183 46 -231 50 -284 26z"/>
</g>
</svg>
