<?xml version="1.0" standalone="no"?>
<!DOCTYPE svg PUBLIC "-//W3C//DTD SVG 20010904//EN"
 "http://www.w3.org/TR/2001/REC-SVG-20010904/DTD/svg10.dtd">
<svg version="1.0" xmlns="http://www.w3.org/2000/svg"
 width="512.000000pt" height="512.000000pt" viewBox="0 0 512.000000 512.000000"
 preserveAspectRatio="xMidYMid meet">

<g transform="translate(0.000000,512.000000) scale(0.100000,-0.100000)"
fill="#000000" stroke="none">
<path d="M402 5069 c-29 -5 -70 -18 -90 -28 -53 -27 -115 -98 -138 -157 -18
-48 -19 -108 -19 -2164 l0 -2115 27 -51 c36 -68 81 -112 148 -143 l55 -26
1336 -3 1336 -2 7 -52 c15 -114 84 -205 195 -257 l56 -26 535 0 c399 0 545 3
576 12 88 27 177 113 208 201 9 23 54 361 101 750 95 788 94 782 103 781 29
-4 54 4 66 24 23 34 69 312 61 367 -13 90 -84 186 -167 226 -18 8 -116 30
-218 48 l-185 32 4 85 c3 95 -11 144 -57 192 -49 52 -71 58 -379 112 l-33 6 0
687 0 686 -397 399 c-224 225 -412 405 -430 413 -27 12 -241 14 -1340 13 -719
-1 -1332 -5 -1361 -10z m2608 -509 c0 -357 1 -371 20 -390 19 -19 33 -20 390
-20 l370 0 0 -620 0 -620 -32 0 c-119 0 -199 -76 -228 -213 -11 -56 -13 -58
-38 -53 -123 26 -328 56 -377 56 -100 -1 -199 -61 -246 -152 -19 -38 -69 -284
-69 -343 0 -56 24 -66 251 -105 l204 -35 -180 -6 c-99 -3 -181 -7 -181 -8 -1
0 -9 -12 -18 -26 -16 -24 -12 -63 69 -733 46 -389 87 -722 90 -740 l6 -32
-1319 2 -1318 3 -41 27 c-80 53 -74 -142 -71 2195 l3 2082 21 28 c11 15 36 38
54 51 l33 22 1303 0 1304 0 0 -370z m415 0 l270 -270 -273 0 -272 0 0 270 c0
149 1 270 3 270 1 0 124 -121 272 -270z m554 -1830 c123 -21 234 -46 247 -55
29 -19 38 -53 30 -112 -3 -26 -7 -47 -9 -48 -2 -2 -580 97 -585 100 -1 1 1 24
5 51 7 50 46 104 75 104 8 0 114 -18 237 -40z m-39 -305 c480 -83 788 -141
810 -152 21 -11 44 -35 59 -62 l24 -44 -18 -114 c-13 -88 -21 -113 -33 -113
-22 0 -1825 320 -1830 325 -2 2 4 50 14 106 15 85 23 108 48 137 35 40 57 51
111 51 21 1 388 -60 815 -134z m460 -561 c151 -26 279 -50 283 -54 13 -11
-170 -1486 -190 -1527 -9 -19 -34 -48 -56 -64 l-40 -29 -534 0 c-375 0 -541 3
-556 11 -41 21 -87 73 -97 109 -5 19 -50 373 -99 785 -50 413 -93 765 -96 783
l-6 32 558 0 558 1 275 -47z"/>
<path d="M907 3952 c-24 -26 -21 -75 4 -98 20 -18 55 -19 1113 -22 600 -1
1101 0 1114 3 57 14 79 73 42 113 l-21 22 -1118 0 c-1070 0 -1119 -1 -1134
-18z"/>
<path d="M910 3440 c-12 -12 -20 -33 -20 -55 0 -69 -67 -65 1158 -65 1097 0
1099 0 1126 21 31 25 33 57 5 93 l-20 26 -1115 0 c-1101 0 -1114 0 -1134 -20z"/>
<path d="M912 2930 c-14 -14 -22 -33 -22 -55 0 -69 -79 -65 1155 -65 l1112 0
21 23 c28 29 28 57 1 91 l-20 26 -1113 0 c-1105 0 -1112 0 -1134 -20z"/>
<path d="M916 2419 c-32 -25 -36 -77 -8 -102 17 -16 87 -17 805 -17 l786 0 20
26 c32 41 24 76 -26 102 -16 9 -224 12 -786 12 -758 0 -765 0 -791 -21z"/>
<path d="M945 1923 c-55 -14 -75 -82 -34 -119 20 -18 50 -19 776 -22 495 -2
767 1 792 8 29 7 42 18 51 41 11 27 11 33 -7 57 -11 15 -31 30 -44 33 -27 8
-1503 9 -1534 2z"/>
<path d="M906 1388 c-17 -24 -21 -65 -8 -84 22 -33 48 -34 809 -34 417 0 768
3 781 6 27 8 54 56 45 81 -3 10 -13 26 -21 36 -14 16 -65 17 -803 17 l-788 0
-15 -22z"/>
<path d="M3817 1590 l-27 -22 2 -565 3 -566 26 -19 c18 -14 33 -17 53 -12 56
14 56 13 56 607 0 504 -1 546 -17 565 -28 32 -64 37 -96 12z"/>
<path d="M3416 1418 c-14 -19 -16 -76 -16 -419 0 -371 1 -397 18 -412 26 -24
75 -21 98 4 18 20 19 42 19 414 0 372 -1 394 -19 414 -26 29 -80 28 -100 -1z"/>
<path d="M4194 1419 c-18 -20 -19 -42 -19 -414 0 -372 1 -394 19 -414 24 -26
77 -28 99 -3 15 17 17 60 17 413 0 341 -2 398 -16 417 -20 29 -74 30 -100 1z"/>
</g>
</svg>
