<?xml version="1.0" standalone="no"?>
<!DOCTYPE svg PUBLIC "-//W3C//DTD SVG 20010904//EN"
 "http://www.w3.org/TR/2001/REC-SVG-20010904/DTD/svg10.dtd">
<svg version="1.0" xmlns="http://www.w3.org/2000/svg"
 width="128.000000pt" height="128.000000pt" viewBox="0 0 128.000000 128.000000"
 preserveAspectRatio="xMidYMid meet">

<g transform="translate(0.000000,128.000000) scale(0.100000,-0.100000)"
fill="#000000" stroke="none">
<path d="M611 1266 c-7 -8 -11 -31 -9 -52 6 -72 70 -72 76 0 4 41 -11 66 -38
66 -10 0 -23 -6 -29 -14z"/>
<path d="M312 1188 c-16 -16 -15 -35 5 -69 20 -34 38 -42 64 -29 24 14 24 37
-1 78 -20 33 -47 41 -68 20z"/>
<path d="M900 1168 c-25 -41 -25 -64 -1 -78 27 -14 45 -4 67 36 14 26 16 38 8
52 -20 31 -51 27 -74 -10z"/>
<path d="M523 1116 c-215 -52 -373 -254 -373 -476 0 -313 304 -552 605 -475
184 47 327 194 364 373 73 352 -247 662 -596 578z m270 -96 c75 -28 173 -118
211 -193 121 -241 -19 -531 -285 -588 -202 -44 -421 93 -474 297 -56 217 70
438 286 499 72 20 187 13 262 -15z"/>
<path d="M893 501 c-10 -10 -34 -35 -53 -56 -19 -21 -58 -49 -86 -62 -66 -30
-79 -45 -64 -72 14 -27 43 -26 108 4 59 27 149 113 158 151 12 46 -31 70 -63
35z"/>
<path d="M92 968 c-21 -21 -13 -48 21 -68 40 -25 63 -25 77 -1 13 26 5 44 -29
64 -34 20 -53 21 -69 5z"/>
<path d="M1118 963 c-34 -21 -41 -38 -28 -64 14 -25 45 -24 81 2 31 21 37 47
17 67 -16 16 -38 15 -70 -5z"/>
<path d="M12 668 c-33 -33 -2 -71 54 -66 43 4 65 28 48 56 -13 21 -84 28 -102
10z"/>
<path d="M1172 668 c-33 -33 -2 -71 54 -66 43 4 65 28 48 56 -13 21 -84 28
-102 10z"/>
<path d="M112 380 c-37 -23 -41 -54 -10 -74 14 -8 26 -6 52 8 40 22 50 40 36
67 -14 24 -37 24 -78 -1z"/>
<path d="M1090 381 c-14 -27 -4 -45 36 -67 26 -14 38 -16 52 -8 31 20 27 51
-10 74 -41 25 -64 25 -78 1z"/>
<path d="M330 178 c-27 -29 -35 -64 -20 -83 20 -24 49 -17 70 18 25 41 25 63
1 77 -26 14 -27 13 -51 -12z"/>
<path d="M898 189 c-23 -13 -23 -36 2 -76 21 -35 50 -42 70 -18 15 19 7 54
-20 83 -23 25 -28 26 -52 11z"/>
<path d="M611 106 c-17 -21 -10 -87 12 -100 27 -17 51 5 55 48 4 41 -11 66
-38 66 -10 0 -23 -6 -29 -14z"/>
</g>
</svg>
