<svg width="25" height="24" viewBox="0 0 25 24" fill="none" xmlns="http://www.w3.org/2000/svg">
<g opacity="0.9">
<path d="M9.5 15C9.30222 15 9.10888 15.0586 8.94443 15.1685C8.77998 15.2784 8.65181 15.4346 8.57612 15.6173C8.50043 15.8 8.48063 16.0011 8.51921 16.1951C8.5578 16.3891 8.65304 16.5673 8.79289 16.7071C8.93275 16.847 9.11093 16.9422 9.30491 16.9808C9.49889 17.0194 9.69996 16.9996 9.88268 16.9239C10.0654 16.8482 10.2216 16.72 10.3315 16.5556C10.4414 16.3911 10.5 16.1978 10.5 16C10.5 15.7348 10.3946 15.4804 10.2071 15.2929C10.0196 15.1054 9.76522 15 9.5 15ZM2.5 14C2.23478 14 1.98043 14.1054 1.79289 14.2929C1.60536 14.4804 1.5 14.7348 1.5 15V17C1.5 17.2652 1.60536 17.5196 1.79289 17.7071C1.98043 17.8946 2.23478 18 2.5 18C2.76522 18 3.01957 17.8946 3.20711 17.7071C3.39464 17.5196 3.5 17.2652 3.5 17V15C3.5 14.7348 3.39464 14.4804 3.20711 14.2929C3.01957 14.1054 2.76522 14 2.5 14ZM22.5 14C22.2348 14 21.9804 14.1054 21.7929 14.2929C21.6054 14.4804 21.5 14.7348 21.5 15V17C21.5 17.2652 21.6054 17.5196 21.7929 17.7071C21.9804 17.8946 22.2348 18 22.5 18C22.7652 18 23.0196 17.8946 23.2071 17.7071C23.3946 17.5196 23.5 17.2652 23.5 17V15C23.5 14.7348 23.3946 14.4804 23.2071 14.2929C23.0196 14.1054 22.7652 14 22.5 14ZM17.5 7H13.5V5.72C13.8023 5.54549 14.0536 5.29491 14.2291 4.99317C14.4045 4.69143 14.4979 4.34903 14.5 4C14.5 3.46957 14.2893 2.96086 13.9142 2.58579C13.5391 2.21071 13.0304 2 12.5 2C11.9696 2 11.4609 2.21071 11.0858 2.58579C10.7107 2.96086 10.5 3.46957 10.5 4C10.5021 4.34903 10.5955 4.69143 10.7709 4.99317C10.9464 5.29491 11.1977 5.54549 11.5 5.72V7H7.5C6.70435 7 5.94129 7.31607 5.37868 7.87868C4.81607 8.44129 4.5 9.20435 4.5 10V19C4.5 19.7956 4.81607 20.5587 5.37868 21.1213C5.94129 21.6839 6.70435 22 7.5 22H17.5C18.2956 22 19.0587 21.6839 19.6213 21.1213C20.1839 20.5587 20.5 19.7956 20.5 19V10C20.5 9.20435 20.1839 8.44129 19.6213 7.87868C19.0587 7.31607 18.2956 7 17.5 7ZM14.22 9L13.72 11H11.28L10.78 9H14.22ZM18.5 19C18.5 19.2652 18.3946 19.5196 18.2071 19.7071C18.0196 19.8946 17.7652 20 17.5 20H7.5C7.23478 20 6.98043 19.8946 6.79289 19.7071C6.60536 19.5196 6.5 19.2652 6.5 19V10C6.5 9.73478 6.60536 9.48043 6.79289 9.29289C6.98043 9.10536 7.23478 9 7.5 9H8.72L9.5 12.24C9.55475 12.4619 9.68385 12.6583 9.86579 12.7966C10.0477 12.9349 10.2716 13.0067 10.5 13H14.5C14.7284 13.0067 14.9523 12.9349 15.1342 12.7966C15.3162 12.6583 15.4452 12.4619 15.5 12.24L16.28 9H17.5C17.7652 9 18.0196 9.10536 18.2071 9.29289C18.3946 9.48043 18.5 9.73478 18.5 10V19ZM15.5 15C15.3022 15 15.1089 15.0586 14.9444 15.1685C14.78 15.2784 14.6518 15.4346 14.5761 15.6173C14.5004 15.8 14.4806 16.0011 14.5192 16.1951C14.5578 16.3891 14.653 16.5673 14.7929 16.7071C14.9327 16.847 15.1109 16.9422 15.3049 16.9808C15.4989 17.0194 15.7 16.9996 15.8827 16.9239C16.0654 16.8482 16.2216 16.72 16.3315 16.5556C16.4414 16.3911 16.5 16.1978 16.5 16C16.5 15.7348 16.3946 15.4804 16.2071 15.2929C16.0196 15.1054 15.7652 15 15.5 15Z" fill="#201D2F"/>
</g>
</svg>
