<?xml version="1.0" standalone="no"?>
<!DOCTYPE svg PUBLIC "-//W3C//DTD SVG 20010904//EN"
 "http://www.w3.org/TR/2001/REC-SVG-20010904/DTD/svg10.dtd">
<svg version="1.0" xmlns="http://www.w3.org/2000/svg"
 width="512.000000pt" height="512.000000pt" viewBox="0 0 512.000000 512.000000"
 preserveAspectRatio="xMidYMid meet">

<g transform="translate(0.000000,512.000000) scale(0.100000,-0.100000)"
fill="#ffffff" stroke="none">
<path d="M4049 4260 c-25 -4 -72 -19 -105 -33 -121 -50 -2859 -1380 -2900
-1407 -128 -89 -204 -248 -191 -402 11 -127 71 -240 168 -315 68 -52 2916
-1427 3004 -1450 71 -18 137 -13 220 17 78 29 155 106 198 198 27 58 31 77 30
147 0 75 -13 120 -212 759 l-211 678 205 663 c113 364 210 688 216 719 23 128
-42 286 -151 361 -78 54 -185 80 -271 65z m139 -237 c43 -32 65 -69 69 -120 4
-46 -81 -334 -356 -1210 l-42 -133 -1385 0 c-1316 0 -1384 1 -1375 18 5 9 22
29 38 44 16 16 648 327 1478 728 1400 677 1452 701 1498 697 27 -2 60 -13 75
-24z m-314 -1720 c97 -300 378 -1230 382 -1268 4 -40 1 -59 -18 -95 -29 -56
-95 -94 -146 -85 -51 9 -2901 1388 -2944 1425 -21 17 -43 40 -48 50 -11 20 4
20 1374 20 l1384 0 16 -47z"/>
</g>
</svg>
