<?xml version="1.0" standalone="no"?>
<!DOCTYPE svg PUBLIC "-//W3C//DTD SVG 20010904//EN"
 "http://www.w3.org/TR/2001/REC-SVG-20010904/DTD/svg10.dtd">
<svg version="1.0" xmlns="http://www.w3.org/2000/svg"
 width="128.000000pt" height="128.000000pt" viewBox="0 0 128.000000 128.000000"
 preserveAspectRatio="xMidYMid meet">

<g transform="translate(0.000000,128.000000) scale(0.100000,-0.100000)"
fill="#000000" stroke="none">
<path d="M555 1230 c-33 -13 -62 -52 -74 -97 -6 -23 -17 -43 -24 -46 -6 -2
-36 7 -66 21 -71 33 -109 22 -178 -51 -65 -69 -72 -100 -39 -172 28 -63 22
-78 -37 -89 -18 -3 -46 -20 -62 -36 -23 -24 -30 -41 -33 -90 -8 -116 21 -170
104 -191 23 -6 45 -16 47 -23 3 -7 -6 -36 -20 -65 -34 -71 -27 -106 37 -171
72 -74 116 -86 183 -50 58 31 75 27 88 -22 21 -84 57 -108 159 -108 89 0 130
20 149 71 27 72 31 79 46 79 8 0 34 -10 58 -21 65 -32 106 -21 173 45 66 67
77 108 45 173 -11 24 -21 50 -21 58 0 15 7 19 79 46 51 19 71 60 71 149 0 102
-24 138 -107 159 -50 13 -54 29 -22 91 33 62 22 101 -47 171 -71 72 -103 80
-176 46 -29 -14 -57 -23 -64 -20 -7 2 -17 23 -23 46 -11 47 -40 83 -78 98 -30
11 -140 11 -168 -1z m152 -82 c5 -7 18 -35 27 -61 30 -79 92 -100 174 -58 23
12 44 21 47 21 12 0 95 -83 95 -96 0 -7 -9 -28 -20 -46 -26 -44 -26 -107 1
-141 11 -15 39 -32 62 -39 62 -17 67 -24 67 -88 0 -64 -3 -69 -72 -94 -79 -29
-99 -92 -56 -181 l22 -46 -47 -46 -46 -47 -46 22 c-89 43 -152 23 -181 -56
-25 -69 -30 -72 -94 -72 -64 0 -71 5 -88 67 -7 23 -24 51 -39 62 -34 27 -97
27 -141 1 -18 -11 -38 -20 -45 -20 -7 0 -33 20 -57 45 l-44 44 24 50 c42 91
24 147 -57 177 -70 26 -73 30 -73 95 0 63 2 66 69 89 82 28 105 94 62 179 -16
30 -19 46 -12 60 10 18 77 81 87 81 3 0 23 -9 46 -21 84 -43 150 -20 178 62
23 67 26 69 89 69 35 0 62 -5 68 -12z"/>
<path d="M563 909 c-33 -10 -48 -34 -38 -62 5 -12 23 -15 95 -14 83 2 91 0
131 -28 81 -57 111 -162 70 -250 -65 -140 -255 -155 -346 -26 -28 39 -30 50
-30 126 0 50 -5 89 -11 95 -21 21 -53 1 -64 -38 -47 -172 90 -352 270 -352
151 0 280 129 280 280 0 181 -183 319 -357 269z"/>
</g>
</svg>
